solid BedBugTrap
facet normal 0.6087614290087204 -0.7933533402912353 -0.0
  outer loop
    vertex -20.00000000000002 34.64101615137754 14.499999999999998
    vertex -28.284271247461916 28.28427124746191 1.5
    vertex -20.00000000000002 34.64101615137754 1.5
  endloop
endfacet
facet normal 0.6087614290087204 -0.7933533402912353 -0.0
  outer loop
    vertex -28.284271247461916 28.28427124746191 1.5
    vertex -20.00000000000002 34.64101615137754 14.499999999999998
    vertex -28.284271247461916 28.28427124746191 14.499999999999998
  endloop
endfacet
facet normal -0.38268343236509095 0.9238795325112864 -0.0
  outer loop
    vertex -10.00000000000001 17.320508075688767 41.500000000000014
    vertex -5.176380902050441 19.31851652578136 1.5
    vertex -10.00000000000001 17.320508075688767 1.5
  endloop
endfacet
facet normal -0.38268343236509095 0.9238795325112864 -0.0
  outer loop
    vertex -5.176380902050441 19.31851652578136 1.5
    vertex -10.00000000000001 17.320508075688767 41.500000000000014
    vertex -5.176380902050441 19.31851652578136 41.500000000000014
  endloop
endfacet
facet normal -0.6087614290087208 -0.7933533402912352 -0.0
  outer loop
    vertex -9.99999999999999 -17.32050807568878 41.500000000000014
    vertex -14.142135623730935 -14.142135623730963 1.5
    vertex -9.99999999999999 -17.32050807568878 1.5
  endloop
endfacet
facet normal -0.6087614290087208 -0.7933533402912352 -0.0
  outer loop
    vertex -14.142135623730935 -14.142135623730963 1.5
    vertex -9.99999999999999 -17.32050807568878 41.500000000000014
    vertex -14.142135623730935 -14.142135623730963 41.500000000000014
  endloop
endfacet
facet normal -0.9914448613738104 0.13052619222005132 -0.0
  outer loop
    vertex -19.31851652578137 5.176380902050403 41.500000000000014
    vertex -19.999999999999996 -4.229949723821846e-15 1.5
    vertex -19.999999999999996 -4.229949723821846e-15 41.500000000000014
  endloop
endfacet
facet normal -0.9914448613738104 0.13052619222005132 -0.0
  outer loop
    vertex -19.999999999999996 -4.229949723821846e-15 1.5
    vertex -19.31851652578137 5.176380902050403 41.500000000000014
    vertex -19.31851652578137 5.176380902050403 1.5
  endloop
endfacet
facet normal 0.36425483453167545 -0.8793889616863374 0.30658354421678835
  outer loop
    vertex 20.00000000000002 -34.64101615137756 14.499999999999998
    vertex 11.571972722122663 -43.18719014276286 0.0
    vertex 22.355334626821776 -38.72057539385911 0.0
  endloop
endfacet
facet normal 0.36425483453167545 -0.8793889616863374 0.30658354421678835
  outer loop
    vertex 11.571972722122663 -43.18719014276286 0.0
    vertex 20.00000000000002 -34.64101615137756 14.499999999999998
    vertex 10.352761804100847 -38.63703305156275 14.499999999999998
  endloop
endfacet
facet normal -0.9914448613738105 -0.13052619222005232 -0.0
  outer loop
    vertex -19.999999999999996 -4.229949723821846e-15 41.500000000000014
    vertex -19.318516525781355 -5.176380902050435 1.5
    vertex -19.318516525781355 -5.176380902050435 41.500000000000014
  endloop
endfacet
facet normal -0.9914448613738105 -0.13052619222005232 -0.0
  outer loop
    vertex -19.318516525781355 -5.176380902050435 1.5
    vertex -19.999999999999996 -4.229949723821846e-15 41.500000000000014
    vertex -19.999999999999996 -4.229949723821846e-15 1.5
  endloop
endfacet
facet normal 0.7933533402912352 -0.6087614290087207 -0.0
  outer loop
    vertex 17.32050807568879 -9.999999999999998 1.5
    vertex 14.14213562373096 -14.142135623730958 41.500000000000014
    vertex 14.14213562373096 -14.142135623730958 1.5
  endloop
endfacet
facet normal 0.7933533402912352 -0.6087614290087207 -0.0
  outer loop
    vertex 14.14213562373096 -14.142135623730958 41.500000000000014
    vertex 17.32050807568879 -9.999999999999998 1.5
    vertex 17.32050807568879 -9.999999999999998 41.500000000000014
  endloop
endfacet
facet normal -0.8793889616863373 0.3642548345316745 0.3065835442167895
  outer loop
    vertex -34.64101615137756 19.999999999999975 14.499999999999998
    vertex -43.18719014276286 11.571972722122629 0.0
    vertex -38.63703305156274 10.352761804100815 14.499999999999998
  endloop
endfacet
facet normal -0.8793889616863373 0.3642548345316745 0.3065835442167895
  outer loop
    vertex -43.18719014276286 11.571972722122629 0.0
    vertex -34.64101615137756 19.999999999999975 14.499999999999998
    vertex -38.72057539385913 22.35533462682173 0.0
  endloop
endfacet
facet normal -0.923879532511287 0.38268343236508917 -0.0
  outer loop
    vertex 38.63703305156276 -10.352761804100833 14.499999999999998
    vertex 34.64101615137758 -20.000000000000004 1.5
    vertex 34.64101615137758 -20.000000000000004 14.499999999999998
  endloop
endfacet
facet normal -0.923879532511287 0.38268343236508917 -0.0
  outer loop
    vertex 34.64101615137758 -20.000000000000004 1.5
    vertex 38.63703305156276 -10.352761804100833 14.499999999999998
    vertex 38.63703305156276 -10.352761804100833 1.5
  endloop
endfacet
facet normal -0.579445763362151 -0.7551484209988963 0.306583544216789
  outer loop
    vertex -19.999999999999996 -34.64101615137756 14.499999999999998
    vertex -31.61521742064019 -31.61521742064022 0.0
    vertex -22.355334626821747 -38.72057539385913 0.0
  endloop
endfacet
facet normal -0.579445763362151 -0.7551484209988963 0.306583544216789
  outer loop
    vertex -31.61521742064019 -31.61521742064022 0.0
    vertex -19.999999999999996 -34.64101615137756 14.499999999999998
    vertex -28.28427124746189 -28.284271247461927 14.499999999999998
  endloop
endfacet
facet normal 0.9914448613738104 -0.13052619222005185 -0.0
  outer loop
    vertex -38.63703305156274 10.352761804100815 1.5
    vertex -40.000000000000014 -8.459899447643692e-15 14.499999999999998
    vertex -40.000000000000014 -8.459899447643692e-15 1.5
  endloop
endfacet
facet normal 0.9914448613738104 -0.13052619222005185 -0.0
  outer loop
    vertex -40.000000000000014 -8.459899447643692e-15 14.499999999999998
    vertex -38.63703305156274 10.352761804100815 1.5
    vertex -38.63703305156274 10.352761804100815 14.499999999999998
  endloop
endfacet
facet normal -0.3826834323650894 -0.9238795325112871 -0.0
  outer loop
    vertex -5.1763809020504015 -19.318516525781373 41.500000000000014
    vertex -9.99999999999999 -17.32050807568878 1.5
    vertex -5.1763809020504015 -19.318516525781373 1.5
  endloop
endfacet
facet normal -0.3826834323650894 -0.9238795325112871 -0.0
  outer loop
    vertex -9.99999999999999 -17.32050807568878 1.5
    vertex -5.1763809020504015 -19.318516525781373 41.500000000000014
    vertex -9.99999999999999 -17.32050807568878 41.500000000000014
  endloop
endfacet
facet normal 0.8793889616863378 -0.36425483453167445 0.30658354421678813
  outer loop
    vertex 43.18719014276286 -11.571972722122645 0.0
    vertex 34.64101615137758 -20.000000000000004 14.499999999999998
    vertex 38.72057539385913 -22.355334626821747 0.0
  endloop
endfacet
facet normal 0.8793889616863378 -0.36425483453167445 0.30658354421678813
  outer loop
    vertex 34.64101615137758 -20.000000000000004 14.499999999999998
    vertex 43.18719014276286 -11.571972722122645 0.0
    vertex 38.63703305156276 -10.352761804100833 14.499999999999998
  endloop
endfacet
facet normal -0.3826834323650904 0.9238795325112865 -0.0
  outer loop
    vertex 10.352761804100847 -38.63703305156275 14.499999999999998
    vertex 20.00000000000002 -34.64101615137756 1.5
    vertex 10.352761804100847 -38.63703305156275 1.5
  endloop
endfacet
facet normal -0.3826834323650904 0.9238795325112865 -0.0
  outer loop
    vertex 20.00000000000002 -34.64101615137756 1.5
    vertex 10.352761804100847 -38.63703305156275 14.499999999999998
    vertex 20.00000000000002 -34.64101615137756 14.499999999999998
  endloop
endfacet
facet normal -0.3642548345316745 -0.8793889616863375 0.3065835442167889
  outer loop
    vertex -10.352761804100815 -38.63703305156275 14.499999999999998
    vertex -22.355334626821747 -38.72057539385913 0.0
    vertex -11.571972722122633 -43.18719014276286 0.0
  endloop
endfacet
facet normal -0.3642548345316745 -0.8793889616863375 0.3065835442167889
  outer loop
    vertex -22.355334626821747 -38.72057539385913 0.0
    vertex -10.352761804100815 -38.63703305156275 14.499999999999998
    vertex -19.999999999999996 -34.64101615137756 14.499999999999998
  endloop
endfacet
facet normal 0.7551484209988963 -0.5794457633621513 0.30658354421678835
  outer loop
    vertex 38.72057539385913 -22.355334626821747 0.0
    vertex 28.284271247461927 -28.284271247461916 14.499999999999998
    vertex 31.61521742064021 -31.615217420640207 0.0
  endloop
endfacet
facet normal 0.7551484209988963 -0.5794457633621513 0.30658354421678835
  outer loop
    vertex 28.284271247461927 -28.284271247461916 14.499999999999998
    vertex 38.72057539385913 -22.355334626821747 0.0
    vertex 34.64101615137758 -20.000000000000004 14.499999999999998
  endloop
endfacet
facet normal 0.3826834323650901 -0.9238795325112868 -0.0
  outer loop
    vertex 10.000000000000016 -17.320508075688778 41.500000000000014
    vertex 5.176380902050432 -19.31851652578137 1.5
    vertex 10.000000000000016 -17.320508075688778 1.5
  endloop
endfacet
facet normal 0.3826834323650901 -0.9238795325112868 -0.0
  outer loop
    vertex 5.176380902050432 -19.31851652578137 1.5
    vertex 10.000000000000016 -17.320508075688778 41.500000000000014
    vertex 5.176380902050432 -19.31851652578137 41.500000000000014
  endloop
endfacet
facet normal 0.3826834323650895 0.9238795325112871 -0.0
  outer loop
    vertex -19.999999999999996 -34.64101615137756 14.499999999999998
    vertex -10.352761804100815 -38.63703305156275 1.5
    vertex -19.999999999999996 -34.64101615137756 1.5
  endloop
endfacet
facet normal 0.3826834323650895 0.9238795325112871 -0.0
  outer loop
    vertex -10.352761804100815 -38.63703305156275 1.5
    vertex -19.999999999999996 -34.64101615137756 14.499999999999998
    vertex -10.352761804100815 -38.63703305156275 14.499999999999998
  endloop
endfacet
facet normal -0.923879532511287 0.3826834323650894 -0.0
  outer loop
    vertex -17.320508075688778 9.999999999999988 41.500000000000014
    vertex -19.31851652578137 5.176380902050403 1.5
    vertex -19.31851652578137 5.176380902050403 41.500000000000014
  endloop
endfacet
facet normal -0.923879532511287 0.3826834323650894 -0.0
  outer loop
    vertex -19.31851652578137 5.176380902050403 1.5
    vertex -17.320508075688778 9.999999999999988 41.500000000000014
    vertex -17.320508075688778 9.999999999999988 1.5
  endloop
endfacet
facet normal 0.3826834323650906 -0.9238795325112866 -0.0
  outer loop
    vertex -10.352761804100863 38.63703305156274 14.499999999999998
    vertex -20.00000000000002 34.64101615137754 1.5
    vertex -10.352761804100863 38.63703305156274 1.5
  endloop
endfacet
facet normal 0.3826834323650906 -0.9238795325112866 -0.0
  outer loop
    vertex -20.00000000000002 34.64101615137754 1.5
    vertex -10.352761804100863 38.63703305156274 14.499999999999998
    vertex -20.00000000000002 34.64101615137754 14.499999999999998
  endloop
endfacet
facet normal -0.879388961686337 -0.3642548345316759 0.30658354421678874
  outer loop
    vertex -34.64101615137755 -20.000000000000025 14.499999999999998
    vertex -43.18719014276285 -11.571972722122682 0.0
    vertex -38.7205753938591 -22.35533462682178 0.0
  endloop
endfacet
facet normal -0.879388961686337 -0.3642548345316759 0.30658354421678874
  outer loop
    vertex -43.18719014276285 -11.571972722122682 0.0
    vertex -34.64101615137755 -20.000000000000025 14.499999999999998
    vertex -38.63703305156274 -10.352761804100863 14.499999999999998
  endloop
endfacet
facet normal -0.9238795325112865 -0.3826834323650904 -0.0
  outer loop
    vertex -19.318516525781355 -5.176380902050435 41.500000000000014
    vertex -17.320508075688767 -10.000000000000004 1.5
    vertex -17.320508075688767 -10.000000000000004 41.500000000000014
  endloop
endfacet
facet normal -0.9238795325112865 -0.3826834323650904 -0.0
  outer loop
    vertex -17.320508075688767 -10.000000000000004 1.5
    vertex -19.318516525781355 -5.176380902050435 41.500000000000014
    vertex -19.318516525781355 -5.176380902050435 1.5
  endloop
endfacet
facet normal 0.9238795325112868 -0.3826834323650895 -0.0
  outer loop
    vertex -34.64101615137756 19.999999999999975 1.5
    vertex -38.63703305156274 10.352761804100815 14.499999999999998
    vertex -38.63703305156274 10.352761804100815 1.5
  endloop
endfacet
facet normal 0.9238795325112868 -0.3826834323650895 -0.0
  outer loop
    vertex -38.63703305156274 10.352761804100815 14.499999999999998
    vertex -34.64101615137756 19.999999999999975 1.5
    vertex -34.64101615137756 19.999999999999975 14.499999999999998
  endloop
endfacet
facet normal -0.793353340291235 -0.6087614290087209 -0.0
  outer loop
    vertex -17.320508075688767 -10.000000000000004 41.500000000000014
    vertex -14.142135623730935 -14.142135623730963 1.5
    vertex -14.142135623730935 -14.142135623730963 41.500000000000014
  endloop
endfacet
facet normal -0.793353340291235 -0.6087614290087209 -0.0
  outer loop
    vertex -14.142135623730935 -14.142135623730963 1.5
    vertex -17.320508075688767 -10.000000000000004 41.500000000000014
    vertex -17.320508075688767 -10.000000000000004 1.5
  endloop
endfacet
facet normal -0.9437005978938258 0.12424054068744092 0.3065835442167893
  outer loop
    vertex -38.63703305156274 10.352761804100815 14.499999999999998
    vertex -44.71066925364352 -8.213216698381576e-15 0.0
    vertex -40.000000000000014 -8.459899447643692e-15 14.499999999999998
  endloop
endfacet
facet normal -0.9437005978938258 0.12424054068744092 0.3065835442167893
  outer loop
    vertex -44.71066925364352 -8.213216698381576e-15 0.0
    vertex -38.63703305156274 10.352761804100815 14.499999999999998
    vertex -43.18719014276286 11.571972722122629 0.0
  endloop
endfacet
facet normal 0.9238795325112863 0.38268343236509084 -0.0
  outer loop
    vertex -38.63703305156274 -10.352761804100863 1.5
    vertex -34.64101615137755 -20.000000000000025 14.499999999999998
    vertex -34.64101615137755 -20.000000000000025 1.5
  endloop
endfacet
facet normal 0.9238795325112863 0.38268343236509084 -0.0
  outer loop
    vertex -34.64101615137755 -20.000000000000025 14.499999999999998
    vertex -38.63703305156274 -10.352761804100863 1.5
    vertex -38.63703305156274 -10.352761804100863 14.499999999999998
  endloop
endfacet
facet normal -0.3642548345316757 0.8793889616863368 0.3065835442167892
  outer loop
    vertex -20.00000000000002 34.64101615137754 14.499999999999998
    vertex -11.571972722122684 43.18719014276285 0.0
    vertex -22.35533462682178 38.7205753938591 0.0
  endloop
endfacet
facet normal -0.3642548345316757 0.8793889616863368 0.3065835442167892
  outer loop
    vertex -11.571972722122684 43.18719014276285 0.0
    vertex -20.00000000000002 34.64101615137754 14.499999999999998
    vertex -10.352761804100863 38.63703305156274 14.499999999999998
  endloop
endfacet
facet normal 0.9914448613738105 0.13052619222005143 -0.0
  outer loop
    vertex -40.000000000000014 -8.459899447643692e-15 1.5
    vertex -38.63703305156274 -10.352761804100863 14.499999999999998
    vertex -38.63703305156274 -10.352761804100863 1.5
  endloop
endfacet
facet normal 0.9914448613738105 0.13052619222005143 -0.0
  outer loop
    vertex -38.63703305156274 -10.352761804100863 14.499999999999998
    vertex -40.000000000000014 -8.459899447643692e-15 1.5
    vertex -40.000000000000014 -8.459899447643692e-15 14.499999999999998
  endloop
endfacet
facet normal 0.793353340291236 -0.6087614290087195 -0.0
  outer loop
    vertex -28.284271247461916 28.28427124746191 1.5
    vertex -34.64101615137756 19.999999999999975 14.499999999999998
    vertex -34.64101615137756 19.999999999999975 1.5
  endloop
endfacet
facet normal 0.793353340291236 -0.6087614290087195 -0.0
  outer loop
    vertex -34.64101615137756 19.999999999999975 14.499999999999998
    vertex -28.284271247461916 28.28427124746191 1.5
    vertex -28.284271247461916 28.28427124746191 14.499999999999998
  endloop
endfacet
facet normal -0.13052619222005143 -0.9914448613738105 -0.0
  outer loop
    vertex 1.2689849171465539e-14 -20.000000000000007 41.500000000000014
    vertex -5.1763809020504015 -19.318516525781373 1.5
    vertex 1.2689849171465539e-14 -20.000000000000007 1.5
  endloop
endfacet
facet normal -0.13052619222005143 -0.9914448613738105 -0.0
  outer loop
    vertex -5.1763809020504015 -19.318516525781373 1.5
    vertex 1.2689849171465539e-14 -20.000000000000007 41.500000000000014
    vertex -5.1763809020504015 -19.318516525781373 41.500000000000014
  endloop
endfacet
facet normal -0.755148420998897 0.57944576336215 0.30658354421678935
  outer loop
    vertex -28.284271247461916 28.28427124746191 14.499999999999998
    vertex -38.72057539385913 22.35533462682173 0.0
    vertex -34.64101615137756 19.999999999999975 14.499999999999998
  endloop
endfacet
facet normal -0.755148420998897 0.57944576336215 0.30658354421678935
  outer loop
    vertex -38.72057539385913 22.35533462682173 0.0
    vertex -28.284271247461916 28.28427124746191 14.499999999999998
    vertex -31.615217420640217 31.615217420640207 0.0
  endloop
endfacet
facet normal -0.7933533402912358 0.6087614290087198 -0.0
  outer loop
    vertex -14.142135623730953 14.142135623730953 41.500000000000014
    vertex -17.320508075688778 9.999999999999988 1.5
    vertex -17.320508075688778 9.999999999999988 41.500000000000014
  endloop
endfacet
facet normal -0.7933533402912358 0.6087614290087198 -0.0
  outer loop
    vertex -17.320508075688778 9.999999999999988 1.5
    vertex -14.142135623730953 14.142135623730953 41.500000000000014
    vertex -14.142135623730953 14.142135623730953 1.5
  endloop
endfacet
facet normal 0.6087614290087207 0.7933533402912353 -0.0
  outer loop
    vertex -28.28427124746189 -28.284271247461927 14.499999999999998
    vertex -19.999999999999996 -34.64101615137756 1.5
    vertex -28.28427124746189 -28.284271247461927 1.5
  endloop
endfacet
facet normal 0.6087614290087207 0.7933533402912353 -0.0
  outer loop
    vertex -19.999999999999996 -34.64101615137756 1.5
    vertex -28.28427124746189 -28.284271247461927 14.499999999999998
    vertex -19.999999999999996 -34.64101615137756 14.499999999999998
  endloop
endfacet
facet normal -0.13052619222005657 0.9914448613738098 -0.0
  outer loop
    vertex -5.176380902050441 19.31851652578136 41.500000000000014
    vertex -5.639932965095795e-15 20.00000000000002 1.5
    vertex -5.176380902050441 19.31851652578136 1.5
  endloop
endfacet
facet normal -0.13052619222005657 0.9914448613738098 -0.0
  outer loop
    vertex -5.639932965095795e-15 20.00000000000002 1.5
    vertex -5.176380902050441 19.31851652578136 41.500000000000014
    vertex -5.639932965095795e-15 20.00000000000002 41.500000000000014
  endloop
endfacet
facet normal 0.13052619222005166 -0.9914448613738104 -0.0
  outer loop
    vertex 5.176380902050432 -19.31851652578137 41.500000000000014
    vertex 1.2689849171465539e-14 -20.000000000000007 1.5
    vertex 5.176380902050432 -19.31851652578137 1.5
  endloop
endfacet
facet normal 0.13052619222005166 -0.9914448613738104 -0.0
  outer loop
    vertex 1.2689849171465539e-14 -20.000000000000007 1.5
    vertex 5.176380902050432 -19.31851652578137 41.500000000000014
    vertex 1.2689849171465539e-14 -20.000000000000007 41.500000000000014
  endloop
endfacet
facet normal -0.5794457633621507 0.7551484209988963 0.30658354421678913
  outer loop
    vertex -28.284271247461916 28.28427124746191 14.499999999999998
    vertex -22.35533462682178 38.7205753938591 0.0
    vertex -31.615217420640217 31.615217420640207 0.0
  endloop
endfacet
facet normal -0.5794457633621507 0.7551484209988963 0.30658354421678913
  outer loop
    vertex -22.35533462682178 38.7205753938591 0.0
    vertex -28.284271247461916 28.28427124746191 14.499999999999998
    vertex -20.00000000000002 34.64101615137754 14.499999999999998
  endloop
endfacet
facet normal 0.7933533402912346 0.6087614290087214 -0.0
  outer loop
    vertex -34.64101615137755 -20.000000000000025 1.5
    vertex -28.28427124746189 -28.284271247461927 14.499999999999998
    vertex -28.28427124746189 -28.284271247461927 1.5
  endloop
endfacet
facet normal 0.7933533402912346 0.6087614290087214 -0.0
  outer loop
    vertex -28.28427124746189 -28.284271247461927 14.499999999999998
    vertex -34.64101615137755 -20.000000000000025 1.5
    vertex -34.64101615137755 -20.000000000000025 14.499999999999998
  endloop
endfacet
facet normal -0.0 -0.0 1.0
  outer loop
    vertex -19.318516525781355 -5.176380902050435 41.500000000000014
    vertex -19.31851652578137 5.176380902050403 41.500000000000014
    vertex -19.999999999999996 -4.229949723821846e-15 41.500000000000014
  endloop
endfacet
facet normal -0.0 -0.0 1.0
  outer loop
    vertex -19.31851652578137 5.176380902050403 41.500000000000014
    vertex -19.318516525781355 -5.176380902050435 41.500000000000014
    vertex -17.320508075688778 9.999999999999988 41.500000000000014
  endloop
endfacet
facet normal -0.0 -0.0 1.0
  outer loop
    vertex -17.320508075688778 9.999999999999988 41.500000000000014
    vertex -19.318516525781355 -5.176380902050435 41.500000000000014
    vertex -17.320508075688767 -10.000000000000004 41.500000000000014
  endloop
endfacet
facet normal -0.0 -0.0 1.0
  outer loop
    vertex -17.320508075688778 9.999999999999988 41.500000000000014
    vertex -17.320508075688767 -10.000000000000004 41.500000000000014
    vertex -14.142135623730953 14.142135623730953 41.500000000000014
  endloop
endfacet
facet normal -0.0 -0.0 1.0
  outer loop
    vertex -14.142135623730953 14.142135623730953 41.500000000000014
    vertex -17.320508075688767 -10.000000000000004 41.500000000000014
    vertex -14.142135623730935 -14.142135623730963 41.500000000000014
  endloop
endfacet
facet normal -0.0 -0.0 1.0
  outer loop
    vertex -14.142135623730953 14.142135623730953 41.500000000000014
    vertex -14.142135623730935 -14.142135623730963 41.500000000000014
    vertex -10.00000000000001 17.320508075688767 41.500000000000014
  endloop
endfacet
facet normal -0.0 -0.0 1.0
  outer loop
    vertex -10.00000000000001 17.320508075688767 41.500000000000014
    vertex -14.142135623730935 -14.142135623730963 41.500000000000014
    vertex -9.99999999999999 -17.32050807568878 41.500000000000014
  endloop
endfacet
facet normal -0.0 -0.0 1.0
  outer loop
    vertex -10.00000000000001 17.320508075688767 41.500000000000014
    vertex -9.99999999999999 -17.32050807568878 41.500000000000014
    vertex -5.176380902050441 19.31851652578136 41.500000000000014
  endloop
endfacet
facet normal -0.0 -0.0 1.0
  outer loop
    vertex -5.176380902050441 19.31851652578136 41.500000000000014
    vertex -9.99999999999999 -17.32050807568878 41.500000000000014
    vertex -5.1763809020504015 -19.318516525781373 41.500000000000014
  endloop
endfacet
facet normal -0.0 -0.0 1.0
  outer loop
    vertex -5.176380902050441 19.31851652578136 41.500000000000014
    vertex -5.1763809020504015 -19.318516525781373 41.500000000000014
    vertex -5.639932965095795e-15 20.00000000000002 41.500000000000014
  endloop
endfacet
facet normal -0.0 -0.0 1.0
  outer loop
    vertex -5.639932965095795e-15 20.00000000000002 41.500000000000014
    vertex -5.1763809020504015 -19.318516525781373 41.500000000000014
    vertex 1.2689849171465539e-14 -20.000000000000007 41.500000000000014
  endloop
endfacet
facet normal -0.0 -0.0 1.0
  outer loop
    vertex -5.639932965095795e-15 20.00000000000002 41.500000000000014
    vertex 1.2689849171465539e-14 -20.000000000000007 41.500000000000014
    vertex 5.176380902050425 19.318516525781384 41.500000000000014
  endloop
endfacet
facet normal -0.0 -0.0 1.0
  outer loop
    vertex 5.176380902050425 19.318516525781384 41.500000000000014
    vertex 1.2689849171465539e-14 -20.000000000000007 41.500000000000014
    vertex 5.176380902050432 -19.31851652578137 41.500000000000014
  endloop
endfacet
facet normal -0.0 -0.0 1.0
  outer loop
    vertex 5.176380902050425 19.318516525781384 41.500000000000014
    vertex 5.176380902050432 -19.31851652578137 41.500000000000014
    vertex 10.000000000000007 17.320508075688796 41.500000000000014
  endloop
endfacet
facet normal -0.0 -0.0 1.0
  outer loop
    vertex 10.000000000000007 17.320508075688796 41.500000000000014
    vertex 5.176380902050432 -19.31851652578137 41.500000000000014
    vertex 10.000000000000016 -17.320508075688778 41.500000000000014
  endloop
endfacet
facet normal -0.0 -0.0 1.0
  outer loop
    vertex 10.000000000000007 17.320508075688796 41.500000000000014
    vertex 10.000000000000016 -17.320508075688778 41.500000000000014
    vertex 14.14213562373096 14.142135623730969 41.500000000000014
  endloop
endfacet
facet normal -0.0 -0.0 1.0
  outer loop
    vertex 14.14213562373096 14.142135623730969 41.500000000000014
    vertex 10.000000000000016 -17.320508075688778 41.500000000000014
    vertex 14.14213562373096 -14.142135623730958 41.500000000000014
  endloop
endfacet
facet normal -0.0 -0.0 1.0
  outer loop
    vertex 14.14213562373096 14.142135623730969 41.500000000000014
    vertex 14.14213562373096 -14.142135623730958 41.500000000000014
    vertex 17.32050807568879 -9.999999999999998 41.500000000000014
  endloop
endfacet
facet normal -0.0 -0.0 1.0
  outer loop
    vertex 14.14213562373096 14.142135623730969 41.500000000000014
    vertex 17.32050807568879 -9.999999999999998 41.500000000000014
    vertex 17.32050807568878 10.000000000000018 41.500000000000014
  endloop
endfacet
facet normal -0.0 -0.0 1.0
  outer loop
    vertex 17.32050807568878 10.000000000000018 41.500000000000014
    vertex 17.32050807568879 -9.999999999999998 41.500000000000014
    vertex 19.318516525781376 5.176380902050431 41.500000000000014
  endloop
endfacet
facet normal -0.0 -0.0 1.0
  outer loop
    vertex 19.318516525781376 5.176380902050431 41.500000000000014
    vertex 17.32050807568879 -9.999999999999998 41.500000000000014
    vertex 19.318516525781376 -5.176380902050416 41.500000000000014
  endloop
endfacet
facet normal -0.0 -0.0 1.0
  outer loop
    vertex 19.318516525781376 5.176380902050431 41.500000000000014
    vertex 19.318516525781376 -5.176380902050416 41.500000000000014
    vertex 20.00000000000001 5.639932965095795e-15 41.500000000000014
  endloop
endfacet
facet normal -0.6087614290087207 0.7933533402912354 -0.0
  outer loop
    vertex -14.142135623730953 14.142135623730953 41.500000000000014
    vertex -10.00000000000001 17.320508075688767 1.5
    vertex -14.142135623730953 14.142135623730953 1.5
  endloop
endfacet
facet normal -0.6087614290087207 0.7933533402912354 -0.0
  outer loop
    vertex -10.00000000000001 17.320508075688767 1.5
    vertex -14.142135623730953 14.142135623730953 41.500000000000014
    vertex -10.00000000000001 17.320508075688767 41.500000000000014
  endloop
endfacet
facet normal 0.8793889616863374 0.3642548345316752 0.3065835442167882
  outer loop
    vertex 43.18719014276286 11.57197272212266 0.0
    vertex 34.64101615137756 20.00000000000002 14.499999999999998
    vertex 38.63703305156276 10.352761804100847 14.499999999999998
  endloop
endfacet
facet normal 0.8793889616863374 0.3642548345316752 0.3065835442167882
  outer loop
    vertex 34.64101615137756 20.00000000000002 14.499999999999998
    vertex 43.18719014276286 11.57197272212266 0.0
    vertex 38.720575393859114 22.355334626821765 0.0
  endloop
endfacet
facet normal -0.9238795325112868 -0.3826834323650901 -0.0
  outer loop
    vertex 34.64101615137756 20.00000000000002 14.499999999999998
    vertex 38.63703305156276 10.352761804100847 1.5
    vertex 38.63703305156276 10.352761804100847 14.499999999999998
  endloop
endfacet
facet normal -0.9238795325112868 -0.3826834323650901 -0.0
  outer loop
    vertex 38.63703305156276 10.352761804100847 1.5
    vertex 34.64101615137756 20.00000000000002 14.499999999999998
    vertex 34.64101615137756 20.00000000000002 1.5
  endloop
endfacet
facet normal -0.755148420998896 -0.5794457633621517 0.3065835442167889
  outer loop
    vertex -28.28427124746189 -28.284271247461927 14.499999999999998
    vertex -38.7205753938591 -22.35533462682178 0.0
    vertex -31.61521742064019 -31.61521742064022 0.0
  endloop
endfacet
facet normal -0.755148420998896 -0.5794457633621517 0.3065835442167889
  outer loop
    vertex -38.7205753938591 -22.35533462682178 0.0
    vertex -28.28427124746189 -28.284271247461927 14.499999999999998
    vertex -34.64101615137755 -20.000000000000025 14.499999999999998
  endloop
endfacet
facet normal 0.13052619222005177 0.9914448613738105 -0.0
  outer loop
    vertex -10.352761804100815 -38.63703305156275 14.499999999999998
    vertex 8.459899447643692e-15 -40.00000000000002 1.5
    vertex -10.352761804100815 -38.63703305156275 1.5
  endloop
endfacet
facet normal 0.13052619222005177 0.9914448613738105 -0.0
  outer loop
    vertex 8.459899447643692e-15 -40.00000000000002 1.5
    vertex -10.352761804100815 -38.63703305156275 14.499999999999998
    vertex 8.459899447643692e-15 -40.00000000000002 14.499999999999998
  endloop
endfacet
facet normal 0.12424054068744127 -0.9437005978938261 0.30658354421678835
  outer loop
    vertex 10.352761804100847 -38.63703305156275 14.499999999999998
    vertex 5.475477798921052e-15 -44.71066925364352 0.0
    vertex 11.571972722122663 -43.18719014276286 0.0
  endloop
endfacet
facet normal 0.12424054068744127 -0.9437005978938261 0.30658354421678835
  outer loop
    vertex 5.475477798921052e-15 -44.71066925364352 0.0
    vertex 10.352761804100847 -38.63703305156275 14.499999999999998
    vertex 8.459899447643692e-15 -40.00000000000002 14.499999999999998
  endloop
endfacet
facet normal 0.9914448613738105 -0.130526192220052 -0.0
  outer loop
    vertex 20.00000000000001 5.639932965095795e-15 1.5
    vertex 19.318516525781376 -5.176380902050416 41.500000000000014
    vertex 19.318516525781376 -5.176380902050416 1.5
  endloop
endfacet
facet normal 0.9914448613738105 -0.130526192220052 -0.0
  outer loop
    vertex 19.318516525781376 -5.176380902050416 41.500000000000014
    vertex 20.00000000000001 5.639932965095795e-15 1.5
    vertex 20.00000000000001 5.639932965095795e-15 41.500000000000014
  endloop
endfacet
facet normal 0.9437005978938263 -0.12424054068744132 0.30658354421678796
  outer loop
    vertex 44.71066925364352 2.737738899460526e-15 0.0
    vertex 38.63703305156276 -10.352761804100833 14.499999999999998
    vertex 43.18719014276286 -11.571972722122645 0.0
  endloop
endfacet
facet normal 0.9437005978938263 -0.12424054068744132 0.30658354421678796
  outer loop
    vertex 38.63703305156276 -10.352761804100833 14.499999999999998
    vertex 44.71066925364352 2.737738899460526e-15 0.0
    vertex 40.000000000000036 4.229949723821846e-15 14.499999999999998
  endloop
endfacet
facet normal -0.9914448613738105 0.1305261922200522 -0.0
  outer loop
    vertex 40.000000000000036 4.229949723821846e-15 14.499999999999998
    vertex 38.63703305156276 -10.352761804100833 1.5
    vertex 38.63703305156276 -10.352761804100833 14.499999999999998
  endloop
endfacet
facet normal -0.9914448613738105 0.1305261922200522 -0.0
  outer loop
    vertex 38.63703305156276 -10.352761804100833 1.5
    vertex 40.000000000000036 4.229949723821846e-15 14.499999999999998
    vertex 40.000000000000036 4.229949723821846e-15 1.5
  endloop
endfacet
facet normal 0.5794457633621513 -0.7551484209988965 0.30658354421678835
  outer loop
    vertex 28.284271247461927 -28.284271247461916 14.499999999999998
    vertex 22.355334626821776 -38.72057539385911 0.0
    vertex 31.61521742064021 -31.615217420640207 0.0
  endloop
endfacet
facet normal 0.5794457633621513 -0.7551484209988965 0.30658354421678835
  outer loop
    vertex 22.355334626821776 -38.72057539385911 0.0
    vertex 28.284271247461927 -28.284271247461916 14.499999999999998
    vertex 20.00000000000002 -34.64101615137756 14.499999999999998
  endloop
endfacet
facet normal -0.9914448613738104 -0.13052619222005213 -0.0
  outer loop
    vertex 38.63703305156276 10.352761804100847 14.499999999999998
    vertex 40.000000000000036 4.229949723821846e-15 1.5
    vertex 40.000000000000036 4.229949723821846e-15 14.499999999999998
  endloop
endfacet
facet normal -0.9914448613738104 -0.13052619222005213 -0.0
  outer loop
    vertex 40.000000000000036 4.229949723821846e-15 1.5
    vertex 38.63703305156276 10.352761804100847 14.499999999999998
    vertex 38.63703305156276 10.352761804100847 1.5
  endloop
endfacet
facet normal -0.943700597893826 -0.12424054068744106 0.30658354421678896
  outer loop
    vertex -38.63703305156274 -10.352761804100863 14.499999999999998
    vertex -44.71066925364352 -8.213216698381576e-15 0.0
    vertex -43.18719014276285 -11.571972722122682 0.0
  endloop
endfacet
facet normal -0.943700597893826 -0.12424054068744106 0.30658354421678896
  outer loop
    vertex -44.71066925364352 -8.213216698381576e-15 0.0
    vertex -38.63703305156274 -10.352761804100863 14.499999999999998
    vertex -40.000000000000014 -8.459899447643692e-15 14.499999999999998
  endloop
endfacet
facet normal -0.6087614290087208 0.7933533402912353 -0.0
  outer loop
    vertex 20.00000000000002 -34.64101615137756 14.499999999999998
    vertex 28.284271247461927 -28.284271247461916 1.5
    vertex 20.00000000000002 -34.64101615137756 1.5
  endloop
endfacet
facet normal -0.6087614290087208 0.7933533402912353 -0.0
  outer loop
    vertex 28.284271247461927 -28.284271247461916 1.5
    vertex 20.00000000000002 -34.64101615137756 14.499999999999998
    vertex 28.284271247461927 -28.284271247461916 14.499999999999998
  endloop
endfacet
facet normal -0.12424054068744092 -0.9437005978938261 0.30658354421678863
  outer loop
    vertex 8.459899447643692e-15 -40.00000000000002 14.499999999999998
    vertex -11.571972722122633 -43.18719014276286 0.0
    vertex 5.475477798921052e-15 -44.71066925364352 0.0
  endloop
endfacet
facet normal -0.12424054068744092 -0.9437005978938261 0.30658354421678863
  outer loop
    vertex -11.571972722122633 -43.18719014276286 0.0
    vertex 8.459899447643692e-15 -40.00000000000002 14.499999999999998
    vertex -10.352761804100815 -38.63703305156275 14.499999999999998
  endloop
endfacet
facet normal -0.13052619222005213 0.9914448613738104 -0.0
  outer loop
    vertex 8.459899447643692e-15 -40.00000000000002 14.499999999999998
    vertex 10.352761804100847 -38.63703305156275 1.5
    vertex 8.459899447643692e-15 -40.00000000000002 1.5
  endloop
endfacet
facet normal -0.13052619222005213 0.9914448613738104 -0.0
  outer loop
    vertex 10.352761804100847 -38.63703305156275 1.5
    vertex 8.459899447643692e-15 -40.00000000000002 14.499999999999998
    vertex 10.352761804100847 -38.63703305156275 14.499999999999998
  endloop
endfacet
facet normal 0.7933533402912349 0.6087614290087211 -0.0
  outer loop
    vertex 14.14213562373096 14.142135623730969 1.5
    vertex 17.32050807568878 10.000000000000018 41.500000000000014
    vertex 17.32050807568878 10.000000000000018 1.5
  endloop
endfacet
facet normal 0.7933533402912349 0.6087614290087211 -0.0
  outer loop
    vertex 17.32050807568878 10.000000000000018 41.500000000000014
    vertex 14.14213562373096 14.142135623730969 1.5
    vertex 14.14213562373096 14.142135623730969 41.500000000000014
  endloop
endfacet
facet normal -0.793353340291235 0.6087614290087209 -0.0
  outer loop
    vertex 34.64101615137758 -20.000000000000004 14.499999999999998
    vertex 28.284271247461927 -28.284271247461916 1.5
    vertex 28.284271247461927 -28.284271247461916 14.499999999999998
  endloop
endfacet
facet normal -0.793353340291235 0.6087614290087209 -0.0
  outer loop
    vertex 28.284271247461927 -28.284271247461916 1.5
    vertex 34.64101615137758 -20.000000000000004 14.499999999999998
    vertex 34.64101615137758 -20.000000000000004 1.5
  endloop
endfacet
facet normal 0.9238795325112872 -0.38268343236508906 -0.0
  outer loop
    vertex 19.318516525781376 -5.176380902050416 1.5
    vertex 17.32050807568879 -9.999999999999998 41.500000000000014
    vertex 17.32050807568879 -9.999999999999998 1.5
  endloop
endfacet
facet normal 0.9238795325112872 -0.38268343236508906 -0.0
  outer loop
    vertex 17.32050807568879 -9.999999999999998 41.500000000000014
    vertex 19.318516525781376 -5.176380902050416 1.5
    vertex 19.318516525781376 -5.176380902050416 41.500000000000014
  endloop
endfacet
facet normal 0.6087614290087209 -0.7933533402912352 -0.0
  outer loop
    vertex 14.14213562373096 -14.142135623730958 41.500000000000014
    vertex 10.000000000000016 -17.320508075688778 1.5
    vertex 14.14213562373096 -14.142135623730958 1.5
  endloop
endfacet
facet normal 0.6087614290087209 -0.7933533402912352 -0.0
  outer loop
    vertex 10.000000000000016 -17.320508075688778 1.5
    vertex 14.14213562373096 -14.142135623730958 41.500000000000014
    vertex 10.000000000000016 -17.320508075688778 41.500000000000014
  endloop
endfacet
facet normal 0.9437005978938262 0.12424054068744124 0.3065835442167879
  outer loop
    vertex 43.18719014276286 11.57197272212266 0.0
    vertex 40.000000000000036 4.229949723821846e-15 14.499999999999998
    vertex 44.71066925364352 2.737738899460526e-15 0.0
  endloop
endfacet
facet normal 0.9437005978938262 0.12424054068744124 0.3065835442167879
  outer loop
    vertex 40.000000000000036 4.229949723821846e-15 14.499999999999998
    vertex 43.18719014276286 11.57197272212266 0.0
    vertex 38.63703305156276 10.352761804100847 14.499999999999998
  endloop
endfacet
facet normal 0.9238795325112871 0.38268343236508945 -0.0
  outer loop
    vertex 17.32050807568878 10.000000000000018 1.5
    vertex 19.318516525781376 5.176380902050431 41.500000000000014
    vertex 19.318516525781376 5.176380902050431 1.5
  endloop
endfacet
facet normal 0.9238795325112871 0.38268343236508945 -0.0
  outer loop
    vertex 19.318516525781376 5.176380902050431 41.500000000000014
    vertex 17.32050807568878 10.000000000000018 1.5
    vertex 17.32050807568878 10.000000000000018 41.500000000000014
  endloop
endfacet
facet normal 0.9914448613738105 0.13052619222005138 -0.0
  outer loop
    vertex 19.318516525781376 5.176380902050431 1.5
    vertex 20.00000000000001 5.639932965095795e-15 41.500000000000014
    vertex 20.00000000000001 5.639932965095795e-15 1.5
  endloop
endfacet
facet normal 0.9914448613738105 0.13052619222005138 -0.0
  outer loop
    vertex 20.00000000000001 5.639932965095795e-15 41.500000000000014
    vertex 19.318516525781376 5.176380902050431 1.5
    vertex 19.318516525781376 5.176380902050431 41.500000000000014
  endloop
endfacet
facet normal 0.7551484209988966 0.5794457633621514 0.3065835442167883
  outer loop
    vertex 38.720575393859114 22.355334626821765 0.0
    vertex 28.284271247461916 28.284271247461927 14.499999999999998
    vertex 34.64101615137756 20.00000000000002 14.499999999999998
  endloop
endfacet
facet normal 0.7551484209988966 0.5794457633621514 0.3065835442167883
  outer loop
    vertex 28.284271247461916 28.284271247461927 14.499999999999998
    vertex 38.720575393859114 22.355334626821765 0.0
    vertex 31.615217420640207 31.61521742064021 0.0
  endloop
endfacet
facet normal -0.793353340291235 -0.6087614290087208 -0.0
  outer loop
    vertex 28.284271247461916 28.284271247461927 14.499999999999998
    vertex 34.64101615137756 20.00000000000002 1.5
    vertex 34.64101615137756 20.00000000000002 14.499999999999998
  endloop
endfacet
facet normal -0.793353340291235 -0.6087614290087208 -0.0
  outer loop
    vertex 34.64101615137756 20.00000000000002 1.5
    vertex 28.284271247461916 28.284271247461927 14.499999999999998
    vertex 28.284271247461916 28.284271247461927 1.5
  endloop
endfacet
facet normal 0.6087614290087207 0.7933533402912352 -0.0
  outer loop
    vertex 10.000000000000007 17.320508075688796 41.500000000000014
    vertex 14.14213562373096 14.142135623730969 1.5
    vertex 10.000000000000007 17.320508075688796 1.5
  endloop
endfacet
facet normal 0.6087614290087207 0.7933533402912352 -0.0
  outer loop
    vertex 14.14213562373096 14.142135623730969 1.5
    vertex 10.000000000000007 17.320508075688796 41.500000000000014
    vertex 14.14213562373096 14.142135623730969 41.500000000000014
  endloop
endfacet
facet normal 0.5794457633621511 0.7551484209988966 0.306583544216788
  outer loop
    vertex 20.000000000000007 34.64101615137758 14.499999999999998
    vertex 31.615217420640207 31.61521742064021 0.0
    vertex 22.355334626821758 38.72057539385912 0.0
  endloop
endfacet
facet normal 0.5794457633621511 0.7551484209988966 0.306583544216788
  outer loop
    vertex 31.615217420640207 31.61521742064021 0.0
    vertex 20.000000000000007 34.64101615137758 14.499999999999998
    vertex 28.284271247461916 28.284271247461927 14.499999999999998
  endloop
endfacet
facet normal -0.6087614290087205 -0.7933533402912353 -0.0
  outer loop
    vertex 28.284271247461916 28.284271247461927 14.499999999999998
    vertex 20.000000000000007 34.64101615137758 1.5
    vertex 28.284271247461916 28.284271247461927 1.5
  endloop
endfacet
facet normal -0.6087614290087205 -0.7933533402912353 -0.0
  outer loop
    vertex 20.000000000000007 34.64101615137758 1.5
    vertex 28.284271247461916 28.284271247461927 14.499999999999998
    vertex 20.000000000000007 34.64101615137758 14.499999999999998
  endloop
endfacet
facet normal 0.382683432365089 0.9238795325112871 -0.0
  outer loop
    vertex 5.176380902050425 19.318516525781384 41.500000000000014
    vertex 10.000000000000007 17.320508075688796 1.5
    vertex 5.176380902050425 19.318516525781384 1.5
  endloop
endfacet
facet normal 0.382683432365089 0.9238795325112871 -0.0
  outer loop
    vertex 10.000000000000007 17.320508075688796 1.5
    vertex 5.176380902050425 19.318516525781384 41.500000000000014
    vertex 10.000000000000007 17.320508075688796 41.500000000000014
  endloop
endfacet
facet normal 0.36425483453167473 0.8793889616863376 0.30658354421678813
  outer loop
    vertex 10.352761804100837 38.63703305156276 14.499999999999998
    vertex 22.355334626821758 38.72057539385912 0.0
    vertex 11.57197272212265 43.18719014276286 0.0
  endloop
endfacet
facet normal 0.36425483453167473 0.8793889616863376 0.30658354421678813
  outer loop
    vertex 22.355334626821758 38.72057539385912 0.0
    vertex 10.352761804100837 38.63703305156276 14.499999999999998
    vertex 20.000000000000007 34.64101615137758 14.499999999999998
  endloop
endfacet
facet normal -0.38268343236508956 -0.9238795325112868 -0.0
  outer loop
    vertex 20.000000000000007 34.64101615137758 14.499999999999998
    vertex 10.352761804100837 38.63703305156276 1.5
    vertex 20.000000000000007 34.64101615137758 1.5
  endloop
endfacet
facet normal -0.38268343236508956 -0.9238795325112868 -0.0
  outer loop
    vertex 10.352761804100837 38.63703305156276 1.5
    vertex 20.000000000000007 34.64101615137758 14.499999999999998
    vertex 10.352761804100837 38.63703305156276 14.499999999999998
  endloop
endfacet
facet normal 0.1305261922200514 0.9914448613738105 -0.0
  outer loop
    vertex -5.639932965095795e-15 20.00000000000002 41.500000000000014
    vertex 5.176380902050425 19.318516525781384 1.5
    vertex -5.639932965095795e-15 20.00000000000002 1.5
  endloop
endfacet
facet normal 0.1305261922200514 0.9914448613738105 -0.0
  outer loop
    vertex 5.176380902050425 19.318516525781384 1.5
    vertex -5.639932965095795e-15 20.00000000000002 41.500000000000014
    vertex 5.176380902050425 19.318516525781384 41.500000000000014
  endloop
endfacet
facet normal 0.12424054068744109 0.9437005978938262 0.3065835442167881
  outer loop
    vertex -1.4099832412739487e-15 40.00000000000003 14.499999999999998
    vertex 11.57197272212265 43.18719014276286 0.0
    vertex 0.0 44.71066925364352 0.0
  endloop
endfacet
facet normal 0.12424054068744109 0.9437005978938262 0.3065835442167881
  outer loop
    vertex 11.57197272212265 43.18719014276286 0.0
    vertex -1.4099832412739487e-15 40.00000000000003 14.499999999999998
    vertex 10.352761804100837 38.63703305156276 14.499999999999998
  endloop
endfacet
facet normal -0.13052619222005163 -0.9914448613738105 2.1888275501875772e-17
  outer loop
    vertex 10.352761804100837 38.63703305156276 14.499999999999998
    vertex 0.6311100111619491 39.91691279077815 1.5
    vertex 10.352761804100837 38.63703305156276 1.5
  endloop
endfacet
facet normal -0.13052619222005163 -0.9914448613738105 2.1888275501875772e-17
  outer loop
    vertex 0.6311100111619491 39.91691279077815 1.5
    vertex 10.352761804100837 38.63703305156276 14.499999999999998
    vertex -1.4099832412739487e-15 40.00000000000003 1.5
  endloop
endfacet
facet normal -0.13052619222005163 -0.9914448613738105 2.1888275501875772e-17
  outer loop
    vertex -1.4099832412739487e-15 40.00000000000003 1.5
    vertex 10.352761804100837 38.63703305156276 14.499999999999998
    vertex -1.4099832412739487e-15 40.00000000000003 14.499999999999998
  endloop
endfacet
facet normal 0.0 0.0 -1.0
  outer loop
    vertex -43.18719014276286 11.571972722122629 0.0
    vertex -43.18719014276285 -11.571972722122682 0.0
    vertex -44.71066925364352 -8.213216698381576e-15 0.0
  endloop
endfacet
facet normal 0.0 0.0 -1.0
  outer loop
    vertex -43.18719014276285 -11.571972722122682 0.0
    vertex -43.18719014276286 11.571972722122629 0.0
    vertex -38.72057539385913 22.35533462682173 0.0
  endloop
endfacet
facet normal 0.0 0.0 -1.0
  outer loop
    vertex -43.18719014276285 -11.571972722122682 0.0
    vertex -38.72057539385913 22.35533462682173 0.0
    vertex -38.7205753938591 -22.35533462682178 0.0
  endloop
endfacet
facet normal 0.0 0.0 -1.0
  outer loop
    vertex -38.7205753938591 -22.35533462682178 0.0
    vertex -38.72057539385913 22.35533462682173 0.0
    vertex -31.615217420640217 31.615217420640207 0.0
  endloop
endfacet
facet normal 0.0 0.0 -1.0
  outer loop
    vertex -38.7205753938591 -22.35533462682178 0.0
    vertex -31.615217420640217 31.615217420640207 0.0
    vertex -31.61521742064019 -31.61521742064022 0.0
  endloop
endfacet
facet normal 0.0 0.0 -1.0
  outer loop
    vertex -31.61521742064019 -31.61521742064022 0.0
    vertex -31.615217420640217 31.615217420640207 0.0
    vertex -22.35533462682178 38.7205753938591 0.0
  endloop
endfacet
facet normal 0.0 0.0 -1.0
  outer loop
    vertex -31.61521742064019 -31.61521742064022 0.0
    vertex -22.35533462682178 38.7205753938591 0.0
    vertex -22.355334626821747 -38.72057539385913 0.0
  endloop
endfacet
facet normal 0.0 0.0 -1.0
  outer loop
    vertex -22.355334626821747 -38.72057539385913 0.0
    vertex -22.35533462682178 38.7205753938591 0.0
    vertex -11.571972722122684 43.18719014276285 0.0
  endloop
endfacet
facet normal 0.0 0.0 -1.0
  outer loop
    vertex -22.355334626821747 -38.72057539385913 0.0
    vertex -11.571972722122684 43.18719014276285 0.0
    vertex -11.571972722122633 -43.18719014276286 0.0
  endloop
endfacet
facet normal 0.0 0.0 -1.0
  outer loop
    vertex -11.571972722122633 -43.18719014276286 0.0
    vertex -11.571972722122684 43.18719014276285 0.0
    vertex 0.0 44.71066925364352 0.0
  endloop
endfacet
facet normal 0.0 0.0 -1.0
  outer loop
    vertex -11.571972722122633 -43.18719014276286 0.0
    vertex 0.0 44.71066925364352 0.0
    vertex 5.475477798921052e-15 -44.71066925364352 0.0
  endloop
endfacet
facet normal 0.0 0.0 -1.0
  outer loop
    vertex 5.475477798921052e-15 -44.71066925364352 0.0
    vertex 0.0 44.71066925364352 0.0
    vertex 11.57197272212265 43.18719014276286 0.0
  endloop
endfacet
facet normal 0.0 0.0 -1.0
  outer loop
    vertex 5.475477798921052e-15 -44.71066925364352 0.0
    vertex 11.57197272212265 43.18719014276286 0.0
    vertex 11.571972722122663 -43.18719014276286 0.0
  endloop
endfacet
facet normal 0.0 0.0 -1.0
  outer loop
    vertex 11.571972722122663 -43.18719014276286 0.0
    vertex 11.57197272212265 43.18719014276286 0.0
    vertex 22.355334626821758 38.72057539385912 0.0
  endloop
endfacet
facet normal 0.0 0.0 -1.0
  outer loop
    vertex 11.571972722122663 -43.18719014276286 0.0
    vertex 22.355334626821758 38.72057539385912 0.0
    vertex 22.355334626821776 -38.72057539385911 0.0
  endloop
endfacet
facet normal 0.0 0.0 -1.0
  outer loop
    vertex 22.355334626821776 -38.72057539385911 0.0
    vertex 22.355334626821758 38.72057539385912 0.0
    vertex 31.615217420640207 31.61521742064021 0.0
  endloop
endfacet
facet normal 0.0 0.0 -1.0
  outer loop
    vertex 22.355334626821776 -38.72057539385911 0.0
    vertex 31.615217420640207 31.61521742064021 0.0
    vertex 31.61521742064021 -31.615217420640207 0.0
  endloop
endfacet
facet normal 0.0 0.0 -1.0
  outer loop
    vertex 31.61521742064021 -31.615217420640207 0.0
    vertex 31.615217420640207 31.61521742064021 0.0
    vertex 38.720575393859114 22.355334626821765 0.0
  endloop
endfacet
facet normal 0.0 0.0 -1.0
  outer loop
    vertex 31.61521742064021 -31.615217420640207 0.0
    vertex 38.720575393859114 22.355334626821765 0.0
    vertex 38.72057539385913 -22.355334626821747 0.0
  endloop
endfacet
facet normal 0.0 0.0 -1.0
  outer loop
    vertex 38.72057539385913 -22.355334626821747 0.0
    vertex 38.720575393859114 22.355334626821765 0.0
    vertex 43.18719014276286 11.57197272212266 0.0
  endloop
endfacet
facet normal 0.0 0.0 -1.0
  outer loop
    vertex 38.72057539385913 -22.355334626821747 0.0
    vertex 43.18719014276286 11.57197272212266 0.0
    vertex 43.18719014276286 -11.571972722122645 0.0
  endloop
endfacet
facet normal 0.0 0.0 -1.0
  outer loop
    vertex 43.18719014276286 -11.571972722122645 0.0
    vertex 43.18719014276286 11.57197272212266 0.0
    vertex 44.71066925364352 2.737738899460526e-15 0.0
  endloop
endfacet
facet normal -2.1712585547507903e-33 -1.2967300611279397e-33 1.0
  outer loop
    vertex -19.999999999999996 -34.64101615137756 1.5
    vertex -19.318516525781355 -5.176380902050435 1.5
    vertex -19.999999999999996 -4.229949723821846e-15 1.5
  endloop
endfacet
facet normal -2.1712585547507903e-33 -1.2967300611279397e-33 1.0
  outer loop
    vertex -19.318516525781355 -5.176380902050435 1.5
    vertex -19.999999999999996 -34.64101615137756 1.5
    vertex -10.352761804100815 -38.63703305156275 1.5
  endloop
endfacet
facet normal -2.1712585547507903e-33 -1.2967300611279397e-33 1.0
  outer loop
    vertex -19.318516525781355 -5.176380902050435 1.5
    vertex -10.352761804100815 -38.63703305156275 1.5
    vertex -17.320508075688767 -10.000000000000004 1.5
  endloop
endfacet
facet normal -2.1712585547507903e-33 -1.2967300611279397e-33 1.0
  outer loop
    vertex -17.320508075688767 -10.000000000000004 1.5
    vertex -10.352761804100815 -38.63703305156275 1.5
    vertex -14.142135623730935 -14.142135623730963 1.5
  endloop
endfacet
facet normal -2.1712585547507903e-33 -1.2967300611279397e-33 1.0
  outer loop
    vertex -14.142135623730935 -14.142135623730963 1.5
    vertex -10.352761804100815 -38.63703305156275 1.5
    vertex -9.99999999999999 -17.32050807568878 1.5
  endloop
endfacet
facet normal -2.1712585547507903e-33 -1.2967300611279397e-33 1.0
  outer loop
    vertex -9.99999999999999 -17.32050807568878 1.5
    vertex -10.352761804100815 -38.63703305156275 1.5
    vertex 8.459899447643692e-15 -40.00000000000002 1.5
  endloop
endfacet
facet normal -2.1712585547507903e-33 -1.2967300611279397e-33 1.0
  outer loop
    vertex -9.99999999999999 -17.32050807568878 1.5
    vertex 8.459899447643692e-15 -40.00000000000002 1.5
    vertex -5.1763809020504015 -19.318516525781373 1.5
  endloop
endfacet
facet normal -2.1712585547507903e-33 -1.2967300611279397e-33 1.0
  outer loop
    vertex -5.1763809020504015 -19.318516525781373 1.5
    vertex 8.459899447643692e-15 -40.00000000000002 1.5
    vertex 1.2689849171465539e-14 -20.000000000000007 1.5
  endloop
endfacet
facet normal -2.1712585547507903e-33 -1.2967300611279397e-33 1.0
  outer loop
    vertex 1.2689849171465539e-14 -20.000000000000007 1.5
    vertex 8.459899447643692e-15 -40.00000000000002 1.5
    vertex 10.352761804100847 -38.63703305156275 1.5
  endloop
endfacet
facet normal -2.1712585547507903e-33 -1.2967300611279397e-33 1.0
  outer loop
    vertex 1.2689849171465539e-14 -20.000000000000007 1.5
    vertex 10.352761804100847 -38.63703305156275 1.5
    vertex 5.176380902050432 -19.31851652578137 1.5
  endloop
endfacet
facet normal -2.1712585547507903e-33 -1.2967300611279397e-33 1.0
  outer loop
    vertex 5.176380902050432 -19.31851652578137 1.5
    vertex 10.352761804100847 -38.63703305156275 1.5
    vertex 10.000000000000016 -17.320508075688778 1.5
  endloop
endfacet
facet normal -2.1712585547507903e-33 -1.2967300611279397e-33 1.0
  outer loop
    vertex 10.000000000000016 -17.320508075688778 1.5
    vertex 10.352761804100847 -38.63703305156275 1.5
    vertex 14.14213562373096 -14.142135623730958 1.5
  endloop
endfacet
facet normal -2.1712585547507903e-33 -1.2967300611279397e-33 1.0
  outer loop
    vertex 14.14213562373096 -14.142135623730958 1.5
    vertex 10.352761804100847 -38.63703305156275 1.5
    vertex 20.00000000000002 -34.64101615137756 1.5
  endloop
endfacet
facet normal -2.1712585547507903e-33 -1.2967300611279397e-33 1.0
  outer loop
    vertex 14.14213562373096 -14.142135623730958 1.5
    vertex 20.00000000000002 -34.64101615137756 1.5
    vertex 17.32050807568879 -9.999999999999998 1.5
  endloop
endfacet
facet normal -2.1712585547507903e-33 -1.2967300611279397e-33 1.0
  outer loop
    vertex 17.32050807568879 -9.999999999999998 1.5
    vertex 20.00000000000002 -34.64101615137756 1.5
    vertex 19.318516525781376 -5.176380902050416 1.5
  endloop
endfacet
facet normal -2.1712585547507903e-33 -1.2967300611279397e-33 1.0
  outer loop
    vertex 19.318516525781376 -5.176380902050416 1.5
    vertex 20.00000000000002 -34.64101615137756 1.5
    vertex 20.00000000000001 5.639932965095795e-15 1.5
  endloop
endfacet
facet normal -2.1712585547507903e-33 -1.2967300611279397e-33 1.0
  outer loop
    vertex -38.63703305156274 -10.352761804100863 1.5
    vertex -38.63703305156274 10.352761804100815 1.5
    vertex -40.000000000000014 -8.459899447643692e-15 1.5
  endloop
endfacet
facet normal -2.1712585547507903e-33 -1.2967300611279397e-33 1.0
  outer loop
    vertex -38.63703305156274 10.352761804100815 1.5
    vertex -38.63703305156274 -10.352761804100863 1.5
    vertex -34.64101615137755 -20.000000000000025 1.5
  endloop
endfacet
facet normal -2.1712585547507903e-33 -1.2967300611279397e-33 1.0
  outer loop
    vertex -38.63703305156274 10.352761804100815 1.5
    vertex -34.64101615137755 -20.000000000000025 1.5
    vertex -34.64101615137756 19.999999999999975 1.5
  endloop
endfacet
facet normal -2.1712585547507903e-33 -1.2967300611279397e-33 1.0
  outer loop
    vertex -34.64101615137756 19.999999999999975 1.5
    vertex -34.64101615137755 -20.000000000000025 1.5
    vertex -28.284271247461916 28.28427124746191 1.5
  endloop
endfacet
facet normal -2.1712585547507903e-33 -1.2967300611279397e-33 1.0
  outer loop
    vertex -28.284271247461916 28.28427124746191 1.5
    vertex -34.64101615137755 -20.000000000000025 1.5
    vertex -28.28427124746189 -28.284271247461927 1.5
  endloop
endfacet
facet normal -2.1712585547507903e-33 -1.2967300611279397e-33 1.0
  outer loop
    vertex -28.284271247461916 28.28427124746191 1.5
    vertex -28.28427124746189 -28.284271247461927 1.5
    vertex -20.00000000000002 34.64101615137754 1.5
  endloop
endfacet
facet normal -2.1712585547507903e-33 -1.2967300611279397e-33 1.0
  outer loop
    vertex -20.00000000000002 34.64101615137754 1.5
    vertex -28.28427124746189 -28.284271247461927 1.5
    vertex -19.999999999999996 -34.64101615137756 1.5
  endloop
endfacet
facet normal -2.1712585547507903e-33 -1.2967300611279397e-33 1.0
  outer loop
    vertex -20.00000000000002 34.64101615137754 1.5
    vertex -19.999999999999996 -34.64101615137756 1.5
    vertex -19.999999999999996 -4.229949723821846e-15 1.5
  endloop
endfacet
facet normal -2.1712585547507903e-33 -1.2967300611279397e-33 1.0
  outer loop
    vertex -20.00000000000002 34.64101615137754 1.5
    vertex -19.999999999999996 -4.229949723821846e-15 1.5
    vertex -19.31851652578137 5.176380902050403 1.5
  endloop
endfacet
facet normal -2.1712585547507903e-33 -1.2967300611279397e-33 1.0
  outer loop
    vertex -20.00000000000002 34.64101615137754 1.5
    vertex -19.31851652578137 5.176380902050403 1.5
    vertex -10.352761804100863 38.63703305156274 1.5
  endloop
endfacet
facet normal -2.1712585547507903e-33 -1.2967300611279397e-33 1.0
  outer loop
    vertex -10.352761804100863 38.63703305156274 1.5
    vertex -19.31851652578137 5.176380902050403 1.5
    vertex -17.320508075688778 9.999999999999988 1.5
  endloop
endfacet
facet normal -2.1712585547507903e-33 -1.2967300611279397e-33 1.0
  outer loop
    vertex -10.352761804100863 38.63703305156274 1.5
    vertex -17.320508075688778 9.999999999999988 1.5
    vertex -14.142135623730953 14.142135623730953 1.5
  endloop
endfacet
facet normal -2.1712585547507903e-33 -1.2967300611279397e-33 1.0
  outer loop
    vertex -10.352761804100863 38.63703305156274 1.5
    vertex -14.142135623730953 14.142135623730953 1.5
    vertex -10.00000000000001 17.320508075688767 1.5
  endloop
endfacet
facet normal -2.1712585547507903e-33 -1.2967300611279397e-33 1.0
  outer loop
    vertex -10.352761804100863 38.63703305156274 1.5
    vertex -10.00000000000001 17.320508075688767 1.5
    vertex -1.4099832412739487e-15 40.00000000000003 1.5
  endloop
endfacet
facet normal -2.1712585547507903e-33 -1.2967300611279397e-33 1.0
  outer loop
    vertex -1.4099832412739487e-15 40.00000000000003 1.5
    vertex -10.00000000000001 17.320508075688767 1.5
    vertex -5.176380902050441 19.31851652578136 1.5
  endloop
endfacet
facet normal -2.1712585547507903e-33 -1.2967300611279397e-33 1.0
  outer loop
    vertex -1.4099832412739487e-15 40.00000000000003 1.5
    vertex -5.176380902050441 19.31851652578136 1.5
    vertex -5.639932965095795e-15 20.00000000000002 1.5
  endloop
endfacet
facet normal -2.1712585547507903e-33 -1.2967300611279397e-33 1.0
  outer loop
    vertex -1.4099832412739487e-15 40.00000000000003 1.5
    vertex -5.639932965095795e-15 20.00000000000002 1.5
    vertex 5.176380902050425 19.318516525781384 1.5
  endloop
endfacet
facet normal -2.1712585547507903e-33 -1.2967300611279397e-33 1.0
  outer loop
    vertex -1.4099832412739487e-15 40.00000000000003 1.5
    vertex 5.176380902050425 19.318516525781384 1.5
    vertex 0.6311100111619491 39.91691279077815 1.5
  endloop
endfacet
facet normal -2.1712585547507903e-33 -1.2967300611279397e-33 1.0
  outer loop
    vertex -1.4099832412739487e-15 40.00000000000003 1.5
    vertex 0.6311100111619491 39.91691279077815 1.5
    vertex 0.6096054590109103 40.080256081221705 1.5
  endloop
endfacet
facet normal -2.1712585547507903e-33 -1.2967300611279397e-33 1.0
  outer loop
    vertex 0.6311100111619491 39.91691279077815 1.5
    vertex 5.176380902050425 19.318516525781384 1.5
    vertex 10.352761804100837 38.63703305156276 1.5
  endloop
endfacet
facet normal -2.1712585547507903e-33 -1.2967300611279397e-33 1.0
  outer loop
    vertex 10.352761804100837 38.63703305156276 1.5
    vertex 5.176380902050425 19.318516525781384 1.5
    vertex 10.000000000000007 17.320508075688796 1.5
  endloop
endfacet
facet normal -2.1712585547507903e-33 -1.2967300611279397e-33 1.0
  outer loop
    vertex 10.352761804100837 38.63703305156276 1.5
    vertex 10.000000000000007 17.320508075688796 1.5
    vertex 14.14213562373096 14.142135623730969 1.5
  endloop
endfacet
facet normal -2.1712585547507903e-33 -1.2967300611279397e-33 1.0
  outer loop
    vertex 10.352761804100837 38.63703305156276 1.5
    vertex 14.14213562373096 14.142135623730969 1.5
    vertex 20.000000000000007 34.64101615137758 1.5
  endloop
endfacet
facet normal -2.1712585547507903e-33 -1.2967300611279397e-33 1.0
  outer loop
    vertex 20.000000000000007 34.64101615137758 1.5
    vertex 14.14213562373096 14.142135623730969 1.5
    vertex 17.32050807568878 10.000000000000018 1.5
  endloop
endfacet
facet normal -2.1712585547507903e-33 -1.2967300611279397e-33 1.0
  outer loop
    vertex 20.000000000000007 34.64101615137758 1.5
    vertex 17.32050807568878 10.000000000000018 1.5
    vertex 19.318516525781376 5.176380902050431 1.5
  endloop
endfacet
facet normal -2.1712585547507903e-33 -1.2967300611279397e-33 1.0
  outer loop
    vertex 20.000000000000007 34.64101615137758 1.5
    vertex 19.318516525781376 5.176380902050431 1.5
    vertex 20.00000000000001 5.639932965095795e-15 1.5
  endloop
endfacet
facet normal -2.1712585547507903e-33 -1.2967300611279397e-33 1.0
  outer loop
    vertex 20.000000000000007 34.64101615137758 1.5
    vertex 20.00000000000001 5.639932965095795e-15 1.5
    vertex 28.284271247461916 28.284271247461927 1.5
  endloop
endfacet
facet normal -2.1712585547507903e-33 -1.2967300611279397e-33 1.0
  outer loop
    vertex 28.284271247461916 28.284271247461927 1.5
    vertex 20.00000000000001 5.639932965095795e-15 1.5
    vertex 20.00000000000002 -34.64101615137756 1.5
  endloop
endfacet
facet normal -2.1712585547507903e-33 -1.2967300611279397e-33 1.0
  outer loop
    vertex 28.284271247461916 28.284271247461927 1.5
    vertex 20.00000000000002 -34.64101615137756 1.5
    vertex 28.284271247461927 -28.284271247461916 1.5
  endloop
endfacet
facet normal -2.1712585547507903e-33 -1.2967300611279397e-33 1.0
  outer loop
    vertex 28.284271247461916 28.284271247461927 1.5
    vertex 28.284271247461927 -28.284271247461916 1.5
    vertex 34.64101615137756 20.00000000000002 1.5
  endloop
endfacet
facet normal -2.1712585547507903e-33 -1.2967300611279397e-33 1.0
  outer loop
    vertex 34.64101615137756 20.00000000000002 1.5
    vertex 28.284271247461927 -28.284271247461916 1.5
    vertex 34.64101615137758 -20.000000000000004 1.5
  endloop
endfacet
facet normal -2.1712585547507903e-33 -1.2967300611279397e-33 1.0
  outer loop
    vertex 34.64101615137756 20.00000000000002 1.5
    vertex 34.64101615137758 -20.000000000000004 1.5
    vertex 38.63703305156276 10.352761804100847 1.5
  endloop
endfacet
facet normal -2.1712585547507903e-33 -1.2967300611279397e-33 1.0
  outer loop
    vertex 38.63703305156276 10.352761804100847 1.5
    vertex 34.64101615137758 -20.000000000000004 1.5
    vertex 38.63703305156276 -10.352761804100833 1.5
  endloop
endfacet
facet normal -2.1712585547507903e-33 -1.2967300611279397e-33 1.0
  outer loop
    vertex 38.63703305156276 10.352761804100847 1.5
    vertex 38.63703305156276 -10.352761804100833 1.5
    vertex 40.000000000000036 4.229949723821846e-15 1.5
  endloop
endfacet
facet normal -0.12424054068744185 0.943700597893826 0.3065835442167887
  outer loop
    vertex -10.352761804100863 38.63703305156274 14.499999999999998
    vertex 0.0 44.71066925364352 0.0
    vertex -11.571972722122684 43.18719014276285 0.0
  endloop
endfacet
facet normal -0.12424054068744185 0.943700597893826 0.3065835442167887
  outer loop
    vertex 0.0 44.71066925364352 0.0
    vertex -10.352761804100863 38.63703305156274 14.499999999999998
    vertex -1.4099832412739487e-15 40.00000000000003 14.499999999999998
  endloop
endfacet
facet normal 0.1305261922200535 -0.9914448613738103 0.0
  outer loop
    vertex -1.4099832412739487e-15 40.00000000000003 14.499999999999998
    vertex -10.352761804100863 38.63703305156274 1.5
    vertex -1.4099832412739487e-15 40.00000000000003 1.5
  endloop
endfacet
facet normal 0.1305261922200535 -0.9914448613738103 0.0
  outer loop
    vertex -10.352761804100863 38.63703305156274 1.5
    vertex -1.4099832412739487e-15 40.00000000000003 14.499999999999998
    vertex -10.352761804100863 38.63703305156274 14.499999999999998
  endloop
endfacet
endsolid BedBugTrap
